# xmcd
#
# Track frame offsets:
#	150
#	14715
#	31551
#	46804
#	62245
#	75030
#	87954
#	99423
#	113769
#	126840
#	142299
#	155979
#	173562
#	184673
#
# Disc length: 2649 seconds
#
# Revision: 2
# Processed by: cddbd v1.5.1PL2 Copyright (c) Steve Scherf et al.
# Submitted via: audiograbber 1.83.01
#
DISCID=af0a570e
DTITLE=Gala Star Festival - Musik für schöne Stunden Platte 1
DYEAR=1900
DGENRE=
TTITLE0=Love Story
TTITLE1=Auf der Straße der Sonne
TTITLE2=Maladie d'amour
TTITLE3=Ein bißchen Glück und Zärtlichkeit
TTITLE4=Last Tango in paris
TTITLE5=L'alleuia
TTITLE6=Zwei sind eine ganze Welt
TTITLE7=L'amour en wagon lit
TTITLE8=Das alles war ich ohne dich
TTITLE9=Ich träume manchmal von Athen
TTITLE10=I'll Never Fall In Love Again
TTITLE11=Spiel Zigeiner
TTITLE12=Grischa mein Grischa
TTITLE13=Und er sang Bublitschki
EXTD=Schallplatte
EXTT0=
EXTT1=
EXTT2=
EXTT3=
EXTT4=
EXTT5=
EXTT6=
EXTT7=
EXTT8=
EXTT9=
EXTT10=
EXTT11=
EXTT12=
EXTT13=
PLAYORDER=
